# Blender v2.78 (sub 0) OBJ File: ''
# www.blender.org
o Cube
v 1.000000 -1.000000 -1.000000
v 1.000000 -1.000000 1.000000
v -1.000000 -1.000000 1.000000
v -1.000000 -1.000000 -1.000000
v 2.532289 -0.402395 -2.740649
v 2.532288 -0.402395 -0.740649
v -2.033726 -0.758391 -0.073725
v -2.033726 -0.758391 -2.073724
v 2.532289 1.519433 -2.740649
v 2.532288 1.519433 -0.740649
v -2.033726 1.163437 -2.073724
v -2.033726 1.163437 -0.073725
v 1.000000 4.121746 -0.999999
v 0.999999 4.121746 1.000001
v -1.000000 4.121746 -1.000000
v -1.000000 4.121746 1.000000
v 3.118141 4.472487 -4.377648
v 3.118140 4.472487 -2.377648
v 1.118141 4.472487 -4.377649
v 1.118140 4.472487 -2.377649
vn 0.3112 -0.1543 0.9377
vn -0.0869 -0.9928 -0.0825
vn 0.1524 -0.9824 -0.1076
vn -0.6547 -0.4661 0.5950
vn -0.7319 0.2221 -0.6442
vn -0.6258 -0.5462 -0.5567
vn 0.7411 -0.4301 0.5154
vn -0.3263 -0.1137 0.9384
vn 0.5767 -0.4908 -0.6531
vn -0.7383 0.0228 0.6741
vn -0.5486 0.6945 -0.4655
vn 0.6164 0.3154 -0.7215
vn 0.8347 0.1175 0.5380
vn 0.4494 0.4574 0.7673
vn -0.0673 0.9971 0.0352
vn -0.4810 0.5068 0.7154
vn 0.5103 -0.6877 -0.5163
vn -0.3873 0.0515 -0.9205
vn 0.9668 0.0866 0.2404
vn 0.6619 0.0323 -0.7488
s 1
f 2//1 4//2 1//3
f 7//4 11//5 8//6
f 1//3 6//7 2//1
f 2//1 7//4 3//8
f 7//4 4//2 3//8
f 1//3 8//6 5//9
f 12//10 15//11 11//5
f 5//9 11//5 9//12
f 6//7 12//10 7//4
f 5//9 10//13 6//7
f 14//14 20//15 16//16
f 11//5 13//17 9//12
f 12//10 14//14 16//16
f 10//13 13//17 14//14
f 19//18 18//19 17//20
f 13//17 18//19 14//14
f 15//11 20//15 19//18
f 13//17 19//18 17//20
f 2//1 3//8 4//2
f 7//4 12//10 11//5
f 1//3 5//9 6//7
f 2//1 6//7 7//4
f 7//4 8//6 4//2
f 1//3 4//2 8//6
f 12//10 16//16 15//11
f 5//9 8//6 11//5
f 6//7 10//13 12//10
f 5//9 9//12 10//13
f 14//14 18//19 20//15
f 11//5 15//11 13//17
f 12//10 10//13 14//14
f 10//13 9//12 13//17
f 19//18 20//15 18//19
f 13//17 17//20 18//19
f 15//11 16//16 20//15
f 13//17 15//11 19//18
